<svg xmlns="http://www.w3.org/2000/svg" xmlns:xlink="http://www.w3.org/1999/xlink" width="1050" zoomAndPan="magnify" viewBox="0 0 787.5 337.499995" height="450" preserveAspectRatio="xMidYMid meet" version="1.0"><defs><g/><clipPath id="id1"><path d="M 0.332031 0 L 786.667969 0 L 786.667969 337 L 0.332031 337 Z M 0.332031 0 " clip-rule="nonzero"/></clipPath></defs><g clip-path="url(#id1)"><path fill="#ffffff" d="M 0.332031 0 L 787.167969 0 L 787.167969 343.957031 L 0.332031 343.957031 Z M 0.332031 0 " fill-opacity="1" fill-rule="nonzero"/><path fill="#ffffff" d="M 0.332031 0 L 787.167969 0 L 787.167969 337.214844 L 0.332031 337.214844 Z M 0.332031 0 " fill-opacity="1" fill-rule="nonzero"/><path fill="#f8c729" d="M 0.332031 0 L 787.167969 0 L 787.167969 337.214844 L 0.332031 337.214844 Z M 0.332031 0 " fill-opacity="1" fill-rule="nonzero"/></g><g fill="#000000" fill-opacity="1"><g transform="translate(34.203436, 211.554575)"><g><path d="M 46.09375 -70.421875 L 46.09375 0 L 28.5 0 L 28.5 -70.421875 L 1.375 -70.421875 L 1.375 -84.015625 L 73.28125 -84.015625 L 73.28125 -70.421875 Z M 46.09375 -70.421875 "/></g></g></g><g fill="#000000" fill-opacity="1"><g transform="translate(108.775697, 211.554575)"><g><path d="M 25.046875 -51.640625 C 27.304688 -56.566406 30.144531 -60.144531 33.5625 -62.375 C 36.988281 -64.601562 41.066406 -65.71875 45.796875 -65.71875 C 52.628906 -65.71875 57.875 -63.609375 61.53125 -59.390625 C 65.195312 -55.179688 67.03125 -49.019531 67.03125 -40.90625 L 67.03125 0 L 50.328125 0 L 50.328125 -36.140625 C 50.328125 -47.460938 46.488281 -53.125 38.8125 -53.125 C 34.757812 -53.125 31.488281 -51.382812 29 -47.90625 C 26.519531 -44.4375 25.28125 -39.976562 25.28125 -34.53125 L 25.28125 0 L 8.53125 0 L 8.53125 -88.5 L 25.28125 -88.5 L 25.28125 -64.34375 C 25.28125 -60.007812 25.125 -55.773438 24.8125 -51.640625 Z M 25.046875 -51.640625 "/></g></g></g><g fill="#000000" fill-opacity="1"><g transform="translate(183.347957, 211.554575)"><g><path d="M 34.9375 1.1875 C 25.238281 1.1875 17.785156 -1.679688 12.578125 -7.421875 C 7.367188 -13.171875 4.765625 -21.550781 4.765625 -32.5625 C 4.765625 -43.21875 7.40625 -51.40625 12.6875 -57.125 C 17.976562 -62.851562 25.476562 -65.71875 35.1875 -65.71875 C 44.445312 -65.71875 51.519531 -62.644531 56.40625 -56.5 C 61.300781 -50.351562 63.75 -41.359375 63.75 -29.515625 L 63.75 -29.046875 L 22.359375 -29.046875 C 22.359375 -22.765625 23.519531 -18.019531 25.84375 -14.8125 C 28.175781 -11.613281 31.488281 -10.015625 35.78125 -10.015625 C 41.695312 -10.015625 45.429688 -12.578125 46.984375 -17.703125 L 62.796875 -16.34375 C 58.222656 -4.65625 48.9375 1.1875 34.9375 1.1875 Z M 34.9375 -55.15625 C 31.007812 -55.15625 27.976562 -53.785156 25.84375 -51.046875 C 23.71875 -48.304688 22.597656 -44.46875 22.484375 -39.53125 L 47.53125 -39.53125 C 47.207031 -44.738281 45.953125 -48.644531 43.765625 -51.25 C 41.578125 -53.851562 38.632812 -55.15625 34.9375 -55.15625 Z M 34.9375 -55.15625 "/></g></g></g><g fill="#000000" fill-opacity="1"><g transform="translate(251.243884, 211.554575)"><g/></g></g><g fill="#000000" fill-opacity="1"><g transform="translate(285.162043, 211.554575)"><g><path d="M 47.40625 -12.640625 C 58.019531 -12.640625 65.394531 -17.96875 69.53125 -28.625 L 84.859375 -22.84375 C 81.554688 -14.726562 76.710938 -8.691406 70.328125 -4.734375 C 63.953125 -0.785156 56.3125 1.1875 47.40625 1.1875 C 33.882812 1.1875 23.4375 -2.632812 16.0625 -10.28125 C 8.695312 -17.9375 5.015625 -28.640625 5.015625 -42.390625 C 5.015625 -56.191406 8.570312 -66.785156 15.6875 -74.171875 C 22.800781 -81.566406 33.113281 -85.265625 46.625 -85.265625 C 56.488281 -85.265625 64.519531 -83.285156 70.71875 -79.328125 C 76.925781 -75.378906 81.28125 -69.566406 83.78125 -61.890625 L 68.28125 -57.65625 C 66.96875 -61.875 64.390625 -65.222656 60.546875 -67.703125 C 56.710938 -70.191406 52.191406 -71.4375 46.984375 -71.4375 C 39.035156 -71.4375 33.003906 -68.972656 28.890625 -64.046875 C 24.773438 -59.117188 22.71875 -51.898438 22.71875 -42.390625 C 22.71875 -32.734375 24.832031 -25.359375 29.0625 -20.265625 C 33.300781 -15.179688 39.414062 -12.640625 47.40625 -12.640625 Z M 47.40625 -12.640625 "/></g></g></g><g fill="#000000" fill-opacity="1"><g transform="translate(373.325412, 211.554575)"><g><path d="M 8.53125 0 L 8.53125 -49.375 C 8.53125 -52.914062 8.476562 -55.867188 8.375 -58.234375 C 8.28125 -60.597656 8.171875 -62.691406 8.046875 -64.515625 L 24.03125 -64.515625 C 24.144531 -63.804688 24.300781 -61.628906 24.5 -57.984375 C 24.707031 -54.347656 24.8125 -51.9375 24.8125 -50.75 L 25.046875 -50.75 C 26.671875 -55.28125 28.117188 -58.46875 29.390625 -60.3125 C 30.671875 -62.164062 32.179688 -63.535156 33.921875 -64.421875 C 35.671875 -65.316406 37.859375 -65.765625 40.484375 -65.765625 C 42.628906 -65.765625 44.359375 -65.46875 45.671875 -64.875 L 45.671875 -50.859375 C 42.972656 -51.460938 40.585938 -51.765625 38.515625 -51.765625 C 34.347656 -51.765625 31.097656 -50.070312 28.765625 -46.6875 C 26.441406 -43.3125 25.28125 -38.304688 25.28125 -31.671875 L 25.28125 0 Z M 8.53125 0 "/></g></g></g><g fill="#000000" fill-opacity="1"><g transform="translate(420.834678, 211.554575)"><g><path d="M 34.9375 1.1875 C 25.238281 1.1875 17.785156 -1.679688 12.578125 -7.421875 C 7.367188 -13.171875 4.765625 -21.550781 4.765625 -32.5625 C 4.765625 -43.21875 7.40625 -51.40625 12.6875 -57.125 C 17.976562 -62.851562 25.476562 -65.71875 35.1875 -65.71875 C 44.445312 -65.71875 51.519531 -62.644531 56.40625 -56.5 C 61.300781 -50.351562 63.75 -41.359375 63.75 -29.515625 L 63.75 -29.046875 L 22.359375 -29.046875 C 22.359375 -22.765625 23.519531 -18.019531 25.84375 -14.8125 C 28.175781 -11.613281 31.488281 -10.015625 35.78125 -10.015625 C 41.695312 -10.015625 45.429688 -12.578125 46.984375 -17.703125 L 62.796875 -16.34375 C 58.222656 -4.65625 48.9375 1.1875 34.9375 1.1875 Z M 34.9375 -55.15625 C 31.007812 -55.15625 27.976562 -53.785156 25.84375 -51.046875 C 23.71875 -48.304688 22.597656 -44.46875 22.484375 -39.53125 L 47.53125 -39.53125 C 47.207031 -44.738281 45.953125 -48.644531 43.765625 -51.25 C 41.578125 -53.851562 38.632812 -55.15625 34.9375 -55.15625 Z M 34.9375 -55.15625 "/></g></g></g><g fill="#000000" fill-opacity="1"><g transform="translate(488.730605, 211.554575)"><g><path d="M 23.4375 1.1875 C 17.195312 1.1875 12.328125 -0.507812 8.828125 -3.90625 C 5.328125 -7.300781 3.578125 -12.082031 3.578125 -18.25 C 3.578125 -24.925781 5.753906 -30.015625 10.109375 -33.515625 C 14.460938 -37.015625 20.773438 -38.800781 29.046875 -38.875 L 42.9375 -39.125 L 42.9375 -42.390625 C 42.9375 -46.609375 42.195312 -49.738281 40.71875 -51.78125 C 39.25 -53.832031 36.847656 -54.859375 33.515625 -54.859375 C 30.410156 -54.859375 28.132812 -54.148438 26.6875 -52.734375 C 25.238281 -51.328125 24.332031 -48.992188 23.96875 -45.734375 L 6.5 -46.578125 C 7.570312 -52.859375 10.441406 -57.617188 15.109375 -60.859375 C 19.785156 -64.097656 26.160156 -65.71875 34.234375 -65.71875 C 42.378906 -65.71875 48.65625 -63.707031 53.0625 -59.6875 C 57.476562 -55.675781 59.6875 -49.972656 59.6875 -42.578125 L 59.6875 -19.078125 C 59.6875 -15.460938 60.09375 -12.96875 60.90625 -11.59375 C 61.726562 -10.226562 63.09375 -9.546875 65 -9.546875 C 66.269531 -9.546875 67.503906 -9.664062 68.703125 -9.90625 L 68.703125 -0.828125 C 67.703125 -0.597656 66.800781 -0.378906 66 -0.171875 C 65.207031 0.0234375 64.414062 0.179688 63.625 0.296875 C 62.832031 0.421875 61.988281 0.519531 61.09375 0.59375 C 60.195312 0.675781 59.15625 0.71875 57.96875 0.71875 C 53.75 0.71875 50.632812 -0.3125 48.625 -2.375 C 46.625 -4.445312 45.421875 -7.492188 45.015625 -11.515625 L 44.65625 -11.515625 C 39.96875 -3.046875 32.894531 1.1875 23.4375 1.1875 Z M 42.9375 -29.875 L 34.34375 -29.75 C 30.445312 -29.59375 27.679688 -29.164062 26.046875 -28.46875 C 24.421875 -27.78125 23.179688 -26.71875 22.328125 -25.28125 C 21.472656 -23.851562 21.046875 -21.945312 21.046875 -19.5625 C 21.046875 -16.5 21.75 -14.222656 23.15625 -12.734375 C 24.570312 -11.242188 26.453125 -10.5 28.796875 -10.5 C 31.421875 -10.5 33.816406 -11.210938 35.984375 -12.640625 C 38.148438 -14.066406 39.847656 -16.039062 41.078125 -18.5625 C 42.316406 -21.09375 42.9375 -23.769531 42.9375 -26.59375 Z M 42.9375 -29.875 "/></g></g></g><g fill="#000000" fill-opacity="1"><g transform="translate(556.626532, 211.554575)"><g><path d="M 25.046875 1.078125 C 20.117188 1.078125 16.320312 -0.265625 13.65625 -2.953125 C 10.988281 -5.640625 9.65625 -9.703125 9.65625 -15.140625 L 9.65625 -53.1875 L 1.484375 -53.1875 L 1.484375 -64.515625 L 10.5 -64.515625 L 15.75 -79.671875 L 26.234375 -79.671875 L 26.234375 -64.515625 L 38.46875 -64.515625 L 38.46875 -53.1875 L 26.234375 -53.1875 L 26.234375 -19.671875 C 26.234375 -16.535156 26.828125 -14.222656 28.015625 -12.734375 C 29.210938 -11.242188 31.066406 -10.5 33.578125 -10.5 C 34.890625 -10.5 36.753906 -10.773438 39.171875 -11.328125 L 39.171875 -0.953125 C 35.035156 0.398438 30.328125 1.078125 25.046875 1.078125 Z M 25.046875 1.078125 "/></g></g></g><g fill="#000000" fill-opacity="1"><g transform="translate(597.280634, 211.554575)"><g><path d="M 69.828125 -32.3125 C 69.828125 -21.863281 66.925781 -13.664062 61.125 -7.71875 C 55.320312 -1.78125 47.289062 1.1875 37.03125 1.1875 C 26.96875 1.1875 19.070312 -1.789062 13.34375 -7.75 C 7.625 -13.71875 4.765625 -21.90625 4.765625 -32.3125 C 4.765625 -42.695312 7.625 -50.859375 13.34375 -56.796875 C 19.070312 -62.742188 27.085938 -65.71875 37.390625 -65.71875 C 47.921875 -65.71875 55.957031 -62.84375 61.5 -57.09375 C 67.050781 -51.351562 69.828125 -43.09375 69.828125 -32.3125 Z M 52.296875 -32.3125 C 52.296875 -39.988281 51.039062 -45.554688 48.53125 -49.015625 C 46.03125 -52.472656 42.394531 -54.203125 37.625 -54.203125 C 27.445312 -54.203125 22.359375 -46.90625 22.359375 -32.3125 C 22.359375 -25.125 23.597656 -19.648438 26.078125 -15.890625 C 28.566406 -12.128906 32.160156 -10.25 36.859375 -10.25 C 47.148438 -10.25 52.296875 -17.601562 52.296875 -32.3125 Z M 52.296875 -32.3125 "/></g></g></g><g fill="#000000" fill-opacity="1"><g transform="translate(671.852895, 211.554575)"><g><path d="M 8.53125 0 L 8.53125 -49.375 C 8.53125 -52.914062 8.476562 -55.867188 8.375 -58.234375 C 8.28125 -60.597656 8.171875 -62.691406 8.046875 -64.515625 L 24.03125 -64.515625 C 24.144531 -63.804688 24.300781 -61.628906 24.5 -57.984375 C 24.707031 -54.347656 24.8125 -51.9375 24.8125 -50.75 L 25.046875 -50.75 C 26.671875 -55.28125 28.117188 -58.46875 29.390625 -60.3125 C 30.671875 -62.164062 32.179688 -63.535156 33.921875 -64.421875 C 35.671875 -65.316406 37.859375 -65.765625 40.484375 -65.765625 C 42.628906 -65.765625 44.359375 -65.46875 45.671875 -64.875 L 45.671875 -50.859375 C 42.972656 -51.460938 40.585938 -51.765625 38.515625 -51.765625 C 34.347656 -51.765625 31.097656 -50.070312 28.765625 -46.6875 C 26.441406 -43.3125 25.28125 -38.304688 25.28125 -31.671875 L 25.28125 0 Z M 8.53125 0 "/></g></g></g><g fill="#000000" fill-opacity="1"><g transform="translate(719.321386, 211.554575)"><g/></g></g></svg>