<svg xmlns="http://www.w3.org/2000/svg" xmlns:xlink="http://www.w3.org/1999/xlink" width="1050" zoomAndPan="magnify" viewBox="0 0 787.5 337.499995" height="450" preserveAspectRatio="xMidYMid meet" version="1.0"><defs><g/><clipPath id="id1"><path d="M 0.332031 0 L 786.667969 0 L 786.667969 337 L 0.332031 337 Z M 0.332031 0 " clip-rule="nonzero"/></clipPath></defs><g clip-path="url(#id1)"><path fill="#ffffff" d="M 0.332031 0 L 787.167969 0 L 787.167969 343.957031 L 0.332031 343.957031 Z M 0.332031 0 " fill-opacity="1" fill-rule="nonzero"/><path fill="#ffffff" d="M 0.332031 0 L 787.167969 0 L 787.167969 337.214844 L 0.332031 337.214844 Z M 0.332031 0 " fill-opacity="1" fill-rule="nonzero"/><path fill="#f8c729" d="M 0.332031 0 L 787.167969 0 L 787.167969 337.214844 L 0.332031 337.214844 Z M 0.332031 0 " fill-opacity="1" fill-rule="nonzero"/></g><g fill="#000000" fill-opacity="1"><g transform="translate(34.199371, 210.384046)"><g><path d="M 44.84375 -68.5 L 44.84375 0 L 27.734375 0 L 27.734375 -68.5 L 1.328125 -68.5 L 1.328125 -81.734375 L 71.296875 -81.734375 L 71.296875 -68.5 Z M 44.84375 -68.5 "/></g></g></g><g fill="#000000" fill-opacity="1"><g transform="translate(106.739167, 210.384046)"><g><path d="M 24.359375 -50.234375 C 26.566406 -55.023438 29.332031 -58.503906 32.65625 -60.671875 C 35.976562 -62.835938 39.941406 -63.921875 44.546875 -63.921875 C 51.203125 -63.921875 56.304688 -61.867188 59.859375 -57.765625 C 63.421875 -53.671875 65.203125 -47.679688 65.203125 -39.796875 L 65.203125 0 L 48.953125 0 L 48.953125 -35.15625 C 48.953125 -46.175781 45.222656 -51.6875 37.765625 -51.6875 C 33.816406 -51.6875 30.632812 -49.992188 28.21875 -46.609375 C 25.800781 -43.222656 24.59375 -38.878906 24.59375 -33.578125 L 24.59375 0 L 8.296875 0 L 8.296875 -86.078125 L 24.59375 -86.078125 L 24.59375 -62.59375 C 24.59375 -58.375 24.4375 -54.253906 24.125 -50.234375 Z M 24.359375 -50.234375 "/></g></g></g><g fill="#000000" fill-opacity="1"><g transform="translate(179.278962, 210.384046)"><g><path d="M 33.984375 1.15625 C 24.554688 1.15625 17.304688 -1.632812 12.234375 -7.21875 C 7.171875 -12.8125 4.640625 -20.960938 4.640625 -31.671875 C 4.640625 -42.035156 7.207031 -50 12.34375 -55.5625 C 17.488281 -61.132812 24.78125 -63.921875 34.21875 -63.921875 C 43.226562 -63.921875 50.113281 -60.929688 54.875 -54.953125 C 59.632812 -48.984375 62.015625 -40.238281 62.015625 -28.71875 L 62.015625 -28.25 L 21.75 -28.25 C 21.75 -22.132812 22.878906 -17.519531 25.140625 -14.40625 C 27.410156 -11.300781 30.628906 -9.75 34.796875 -9.75 C 40.566406 -9.75 44.203125 -12.242188 45.703125 -17.234375 L 61.078125 -15.890625 C 56.628906 -4.523438 47.597656 1.15625 33.984375 1.15625 Z M 33.984375 -53.65625 C 30.160156 -53.65625 27.210938 -52.320312 25.140625 -49.65625 C 23.078125 -46.988281 21.988281 -43.253906 21.875 -38.453125 L 46.234375 -38.453125 C 45.921875 -43.523438 44.703125 -47.328125 42.578125 -49.859375 C 40.453125 -52.390625 37.585938 -53.65625 33.984375 -53.65625 Z M 33.984375 -53.65625 "/></g></g></g><g fill="#000000" fill-opacity="1"><g transform="translate(245.324387, 210.384046)"><g/></g></g><g fill="#000000" fill-opacity="1"><g transform="translate(278.318107, 210.384046)"><g><path d="M 60.671875 0 L 60.671875 -35.03125 L 25.0625 -35.03125 L 25.0625 0 L 7.953125 0 L 7.953125 -81.734375 L 25.0625 -81.734375 L 25.0625 -49.1875 L 60.671875 -49.1875 L 60.671875 -81.734375 L 77.78125 -81.734375 L 77.78125 0 Z M 60.671875 0 "/></g></g></g><g fill="#000000" fill-opacity="1"><g transform="translate(364.078585, 210.384046)"><g><path d="M 67.921875 -31.4375 C 67.921875 -21.269531 65.097656 -13.296875 59.453125 -7.515625 C 53.804688 -1.734375 45.992188 1.15625 36.015625 1.15625 C 26.234375 1.15625 18.554688 -1.738281 12.984375 -7.53125 C 7.421875 -13.332031 4.640625 -21.300781 4.640625 -31.4375 C 4.640625 -41.53125 7.421875 -49.46875 12.984375 -55.25 C 18.554688 -61.03125 26.351562 -63.921875 36.375 -63.921875 C 46.613281 -63.921875 54.429688 -61.125 59.828125 -55.53125 C 65.222656 -49.945312 67.921875 -41.914062 67.921875 -31.4375 Z M 50.875 -31.4375 C 50.875 -38.90625 49.65625 -44.320312 47.21875 -47.6875 C 44.78125 -51.050781 41.242188 -52.734375 36.609375 -52.734375 C 26.703125 -52.734375 21.75 -45.632812 21.75 -31.4375 C 21.75 -24.4375 22.957031 -19.109375 25.375 -15.453125 C 27.789062 -11.804688 31.28125 -9.984375 35.84375 -9.984375 C 45.863281 -9.984375 50.875 -17.132812 50.875 -31.4375 Z M 50.875 -31.4375 "/></g></g></g><g fill="#000000" fill-opacity="1"><g transform="translate(436.618381, 210.384046)"><g><path d="M 67.6875 -31.609375 C 67.6875 -21.242188 65.609375 -13.191406 61.453125 -7.453125 C 57.296875 -1.710938 51.351562 1.15625 43.625 1.15625 C 39.175781 1.15625 35.328125 0.191406 32.078125 -1.734375 C 28.828125 -3.671875 26.332031 -6.457031 24.59375 -10.09375 L 24.484375 -10.09375 C 24.484375 -8.738281 24.394531 -6.878906 24.21875 -4.515625 C 24.039062 -2.160156 23.859375 -0.65625 23.671875 0 L 7.828125 0 C 8.140625 -3.59375 8.296875 -8.367188 8.296875 -14.328125 L 8.296875 -86.078125 L 24.59375 -86.078125 L 24.59375 -62.0625 L 24.359375 -51.859375 L 24.59375 -51.859375 C 28.269531 -59.898438 34.960938 -63.921875 44.671875 -63.921875 C 52.085938 -63.921875 57.773438 -61.109375 61.734375 -55.484375 C 65.703125 -49.859375 67.6875 -41.898438 67.6875 -31.609375 Z M 50.703125 -31.609375 C 50.703125 -38.722656 49.65625 -44 47.5625 -47.4375 C 45.476562 -50.882812 42.25 -52.609375 37.875 -52.609375 C 33.46875 -52.609375 30.113281 -50.757812 27.8125 -47.0625 C 25.507812 -43.375 24.359375 -38.050781 24.359375 -31.09375 C 24.359375 -24.4375 25.488281 -19.253906 27.75 -15.546875 C 30.019531 -11.835938 33.359375 -9.984375 37.765625 -9.984375 C 46.390625 -9.984375 50.703125 -17.191406 50.703125 -31.609375 Z M 50.703125 -31.609375 "/></g></g></g><g fill="#000000" fill-opacity="1"><g transform="translate(509.158176, 210.384046)"><g><path d="M 67.6875 -31.609375 C 67.6875 -21.242188 65.609375 -13.191406 61.453125 -7.453125 C 57.296875 -1.710938 51.351562 1.15625 43.625 1.15625 C 39.175781 1.15625 35.328125 0.191406 32.078125 -1.734375 C 28.828125 -3.671875 26.332031 -6.457031 24.59375 -10.09375 L 24.484375 -10.09375 C 24.484375 -8.738281 24.394531 -6.878906 24.21875 -4.515625 C 24.039062 -2.160156 23.859375 -0.65625 23.671875 0 L 7.828125 0 C 8.140625 -3.59375 8.296875 -8.367188 8.296875 -14.328125 L 8.296875 -86.078125 L 24.59375 -86.078125 L 24.59375 -62.0625 L 24.359375 -51.859375 L 24.59375 -51.859375 C 28.269531 -59.898438 34.960938 -63.921875 44.671875 -63.921875 C 52.085938 -63.921875 57.773438 -61.109375 61.734375 -55.484375 C 65.703125 -49.859375 67.6875 -41.898438 67.6875 -31.609375 Z M 50.703125 -31.609375 C 50.703125 -38.722656 49.65625 -44 47.5625 -47.4375 C 45.476562 -50.882812 42.25 -52.609375 37.875 -52.609375 C 33.46875 -52.609375 30.113281 -50.757812 27.8125 -47.0625 C 25.507812 -43.375 24.359375 -38.050781 24.359375 -31.09375 C 24.359375 -24.4375 25.488281 -19.253906 27.75 -15.546875 C 30.019531 -11.835938 33.359375 -9.984375 37.765625 -9.984375 C 46.390625 -9.984375 50.703125 -17.191406 50.703125 -31.609375 Z M 50.703125 -31.609375 "/></g></g></g><g fill="#000000" fill-opacity="1"><g transform="translate(581.697971, 210.384046)"><g><path d="M 8.296875 -74.078125 L 8.296875 -86.078125 L 24.59375 -86.078125 L 24.59375 -74.078125 Z M 8.296875 0 L 8.296875 -62.765625 L 24.59375 -62.765625 L 24.59375 0 Z M 8.296875 0 "/></g></g></g><g fill="#000000" fill-opacity="1"><g transform="translate(614.691691, 210.384046)"><g><path d="M 61.203125 -18.328125 C 61.203125 -12.253906 58.710938 -7.488281 53.734375 -4.03125 C 48.765625 -0.570312 41.894531 1.15625 33.125 1.15625 C 24.5 1.15625 17.894531 -0.203125 13.3125 -2.921875 C 8.726562 -5.648438 5.679688 -9.894531 4.171875 -15.65625 L 18.5 -17.8125 C 19.3125 -14.832031 20.710938 -12.722656 22.703125 -11.484375 C 24.703125 -10.242188 28.175781 -9.625 33.125 -9.625 C 37.6875 -9.625 41.007812 -10.203125 43.09375 -11.359375 C 45.1875 -12.523438 46.234375 -14.347656 46.234375 -16.828125 C 46.234375 -18.835938 45.390625 -20.429688 43.703125 -21.609375 C 42.023438 -22.785156 39.175781 -23.78125 35.15625 -24.59375 C 25.945312 -26.414062 19.738281 -28.109375 16.53125 -29.671875 C 13.320312 -31.234375 10.875 -33.257812 9.1875 -35.75 C 7.507812 -38.25 6.671875 -41.316406 6.671875 -44.953125 C 6.671875 -50.953125 8.976562 -55.625 13.59375 -58.96875 C 18.21875 -62.3125 24.765625 -63.984375 33.234375 -63.984375 C 40.703125 -63.984375 46.707031 -62.53125 51.25 -59.625 C 55.789062 -56.726562 58.625 -52.535156 59.75 -47.046875 L 45.296875 -45.53125 C 44.835938 -48.082031 43.695312 -49.988281 41.875 -51.25 C 40.0625 -52.507812 37.179688 -53.140625 33.234375 -53.140625 C 29.367188 -53.140625 26.46875 -52.644531 24.53125 -51.65625 C 22.601562 -50.664062 21.640625 -49.007812 21.640625 -46.6875 C 21.640625 -44.875 22.382812 -43.4375 23.875 -42.375 C 25.363281 -41.3125 27.863281 -40.429688 31.375 -39.734375 C 36.289062 -38.722656 40.648438 -37.6875 44.453125 -36.625 C 48.265625 -35.5625 51.320312 -34.296875 53.625 -32.828125 C 55.925781 -31.359375 57.765625 -29.472656 59.140625 -27.171875 C 60.515625 -24.867188 61.203125 -21.921875 61.203125 -18.328125 Z M 61.203125 -18.328125 "/></g></g></g><g fill="#000000" fill-opacity="1"><g transform="translate(680.737116, 210.384046)"><g><path d="M 24.359375 1.046875 C 19.566406 1.046875 15.875 -0.253906 13.28125 -2.859375 C 10.6875 -5.472656 9.390625 -9.429688 9.390625 -14.734375 L 9.390625 -51.734375 L 1.453125 -51.734375 L 1.453125 -62.765625 L 10.203125 -62.765625 L 15.3125 -77.5 L 25.515625 -77.5 L 25.515625 -62.765625 L 37.40625 -62.765625 L 37.40625 -51.734375 L 25.515625 -51.734375 L 25.515625 -19.140625 C 25.515625 -16.085938 26.09375 -13.832031 27.25 -12.375 C 28.414062 -10.925781 30.21875 -10.203125 32.65625 -10.203125 C 33.9375 -10.203125 35.753906 -10.472656 38.109375 -11.015625 L 38.109375 -0.921875 C 34.085938 0.390625 29.503906 1.046875 24.359375 1.046875 Z M 24.359375 1.046875 "/></g></g></g><g fill="#000000" fill-opacity="1"><g transform="translate(720.275637, 210.384046)"><g/></g></g></svg>