<svg xmlns="http://www.w3.org/2000/svg" xmlns:xlink="http://www.w3.org/1999/xlink" width="1050" zoomAndPan="magnify" viewBox="0 0 787.5 337.499995" height="450" preserveAspectRatio="xMidYMid meet" version="1.0"><defs><g/><clipPath id="id1"><path d="M 0.332031 0 L 786.667969 0 L 786.667969 337 L 0.332031 337 Z M 0.332031 0 " clip-rule="nonzero"/></clipPath></defs><g clip-path="url(#id1)"><path fill="#ffffff" d="M 0.332031 0 L 787.167969 0 L 787.167969 343.957031 L 0.332031 343.957031 Z M 0.332031 0 " fill-opacity="1" fill-rule="nonzero"/><path fill="#ffffff" d="M 0.332031 0 L 787.167969 0 L 787.167969 337.214844 L 0.332031 337.214844 Z M 0.332031 0 " fill-opacity="1" fill-rule="nonzero"/><path fill="#f8c729" d="M 0.332031 0 L 787.167969 0 L 787.167969 337.214844 L 0.332031 337.214844 Z M 0.332031 0 " fill-opacity="1" fill-rule="nonzero"/></g><g fill="#000000" fill-opacity="1"><g transform="translate(34.186036, 198.561411)"><g><path d="M 32.578125 -49.765625 L 32.578125 0 L 20.140625 0 L 20.140625 -49.765625 L 0.96875 -49.765625 L 0.96875 -59.375 L 51.78125 -59.375 L 51.78125 -49.765625 Z M 32.578125 -49.765625 "/></g></g></g><g fill="#000000" fill-opacity="1"><g transform="translate(86.88365, 198.561411)"><g><path d="M 17.703125 -36.484375 C 19.296875 -39.972656 21.300781 -42.503906 23.71875 -44.078125 C 26.132812 -45.648438 29.015625 -46.4375 32.359375 -46.4375 C 37.191406 -46.4375 40.898438 -44.945312 43.484375 -41.96875 C 46.066406 -38.988281 47.359375 -34.632812 47.359375 -28.90625 L 47.359375 0 L 35.5625 0 L 35.5625 -25.53125 C 35.5625 -33.539062 32.851562 -37.546875 27.4375 -37.546875 C 24.570312 -37.546875 22.257812 -36.316406 20.5 -33.859375 C 18.738281 -31.398438 17.859375 -28.242188 17.859375 -24.390625 L 17.859375 0 L 6.03125 0 L 6.03125 -62.53125 L 17.859375 -62.53125 L 17.859375 -45.46875 C 17.859375 -42.40625 17.75 -39.410156 17.53125 -36.484375 Z M 17.703125 -36.484375 "/></g></g></g><g fill="#000000" fill-opacity="1"><g transform="translate(139.581264, 198.561411)"><g><path d="M 24.6875 0.84375 C 17.832031 0.84375 12.566406 -1.179688 8.890625 -5.234375 C 5.210938 -9.296875 3.375 -15.21875 3.375 -23 C 3.375 -30.53125 5.238281 -36.316406 8.96875 -40.359375 C 12.707031 -44.410156 18.003906 -46.4375 24.859375 -46.4375 C 31.398438 -46.4375 36.398438 -44.265625 39.859375 -39.921875 C 43.316406 -35.585938 45.046875 -29.234375 45.046875 -20.859375 L 45.046875 -20.515625 L 15.796875 -20.515625 C 15.796875 -16.078125 16.617188 -12.726562 18.265625 -10.46875 C 19.910156 -8.207031 22.25 -7.078125 25.28125 -7.078125 C 29.46875 -7.078125 32.109375 -8.890625 33.203125 -12.515625 L 44.375 -11.546875 C 41.144531 -3.285156 34.582031 0.84375 24.6875 0.84375 Z M 24.6875 -38.984375 C 21.90625 -38.984375 19.765625 -38.007812 18.265625 -36.0625 C 16.765625 -34.125 15.972656 -31.414062 15.890625 -27.9375 L 33.578125 -27.9375 C 33.359375 -31.613281 32.472656 -34.375 30.921875 -36.21875 C 29.378906 -38.0625 27.300781 -38.984375 24.6875 -38.984375 Z M 24.6875 -38.984375 "/></g></g></g><g fill="#000000" fill-opacity="1"><g transform="translate(187.560945, 198.561411)"><g/></g></g><g fill="#000000" fill-opacity="1"><g transform="translate(211.529724, 198.561411)"><g><path d="M 54.609375 -40.578125 C 54.609375 -36.753906 53.738281 -33.335938 52 -30.328125 C 50.257812 -27.328125 47.765625 -25.003906 44.515625 -23.359375 C 41.273438 -21.722656 37.421875 -20.90625 32.953125 -20.90625 L 18.203125 -20.90625 L 18.203125 0 L 5.765625 0 L 5.765625 -59.375 L 32.453125 -59.375 C 39.554688 -59.375 45.023438 -57.734375 48.859375 -54.453125 C 52.691406 -51.179688 54.609375 -46.554688 54.609375 -40.578125 Z M 42.09375 -40.375 C 42.09375 -46.601562 38.414062 -49.71875 31.0625 -49.71875 L 18.203125 -49.71875 L 18.203125 -30.46875 L 31.390625 -30.46875 C 34.816406 -30.46875 37.457031 -31.316406 39.3125 -33.015625 C 41.164062 -34.710938 42.09375 -37.164062 42.09375 -40.375 Z M 42.09375 -40.375 "/></g></g></g><g fill="#000000" fill-opacity="1"><g transform="translate(269.071642, 198.561411)"><g><path d="M 6.03125 0 L 6.03125 -34.890625 C 6.03125 -37.390625 5.992188 -39.472656 5.921875 -41.140625 C 5.847656 -42.816406 5.769531 -44.300781 5.6875 -45.59375 L 16.984375 -45.59375 C 17.066406 -45.082031 17.175781 -43.539062 17.3125 -40.96875 C 17.457031 -38.40625 17.53125 -36.703125 17.53125 -35.859375 L 17.703125 -35.859375 C 18.847656 -39.054688 19.867188 -41.304688 20.765625 -42.609375 C 21.671875 -43.921875 22.738281 -44.894531 23.96875 -45.53125 C 25.207031 -46.164062 26.753906 -46.484375 28.609375 -46.484375 C 30.128906 -46.484375 31.351562 -46.269531 32.28125 -45.84375 L 32.28125 -35.9375 C 30.363281 -36.363281 28.675781 -36.578125 27.21875 -36.578125 C 24.269531 -36.578125 21.972656 -35.378906 20.328125 -32.984375 C 18.679688 -30.597656 17.859375 -27.0625 17.859375 -22.375 L 17.859375 0 Z M 6.03125 0 "/></g></g></g><g fill="#000000" fill-opacity="1"><g transform="translate(302.644782, 198.561411)"><g><path d="M 49.34375 -22.84375 C 49.34375 -15.445312 47.289062 -9.648438 43.1875 -5.453125 C 39.082031 -1.253906 33.410156 0.84375 26.171875 0.84375 C 19.054688 0.84375 13.476562 -1.257812 9.4375 -5.46875 C 5.394531 -9.6875 3.375 -15.476562 3.375 -22.84375 C 3.375 -30.175781 5.394531 -35.941406 9.4375 -40.140625 C 13.476562 -44.335938 19.140625 -46.4375 26.421875 -46.4375 C 33.867188 -46.4375 39.550781 -44.40625 43.46875 -40.34375 C 47.382812 -36.28125 49.34375 -30.445312 49.34375 -22.84375 Z M 36.953125 -22.84375 C 36.953125 -28.257812 36.066406 -32.1875 34.296875 -34.625 C 32.523438 -37.070312 29.957031 -38.296875 26.59375 -38.296875 C 19.394531 -38.296875 15.796875 -33.144531 15.796875 -22.84375 C 15.796875 -17.757812 16.671875 -13.890625 18.421875 -11.234375 C 20.179688 -8.578125 22.722656 -7.25 26.046875 -7.25 C 33.316406 -7.25 36.953125 -12.445312 36.953125 -22.84375 Z M 36.953125 -22.84375 "/></g></g></g><g fill="#000000" fill-opacity="1"><g transform="translate(355.342395, 198.561411)"><g><path d="M 19.9375 -37.59375 L 19.9375 0 L 8.125 0 L 8.125 -37.59375 L 1.46875 -37.59375 L 1.46875 -45.59375 L 8.125 -45.59375 L 8.125 -50.359375 C 8.125 -54.484375 9.21875 -57.539062 11.40625 -59.53125 C 13.601562 -61.53125 16.9375 -62.53125 21.40625 -62.53125 C 23.625 -62.53125 26.125 -62.304688 28.90625 -61.859375 L 28.90625 -54.234375 C 27.75 -54.484375 26.597656 -54.609375 25.453125 -54.609375 C 23.429688 -54.609375 22.003906 -54.207031 21.171875 -53.40625 C 20.347656 -52.601562 19.9375 -51.191406 19.9375 -49.171875 L 19.9375 -45.59375 L 28.90625 -45.59375 L 28.90625 -37.59375 Z M 19.9375 -37.59375 "/></g></g></g><g fill="#000000" fill-opacity="1"><g transform="translate(384.07123, 198.561411)"><g><path d="M 24.6875 0.84375 C 17.832031 0.84375 12.566406 -1.179688 8.890625 -5.234375 C 5.210938 -9.296875 3.375 -15.21875 3.375 -23 C 3.375 -30.53125 5.238281 -36.316406 8.96875 -40.359375 C 12.707031 -44.410156 18.003906 -46.4375 24.859375 -46.4375 C 31.398438 -46.4375 36.398438 -44.265625 39.859375 -39.921875 C 43.316406 -35.585938 45.046875 -29.234375 45.046875 -20.859375 L 45.046875 -20.515625 L 15.796875 -20.515625 C 15.796875 -16.078125 16.617188 -12.726562 18.265625 -10.46875 C 19.910156 -8.207031 22.25 -7.078125 25.28125 -7.078125 C 29.46875 -7.078125 32.109375 -8.890625 33.203125 -12.515625 L 44.375 -11.546875 C 41.144531 -3.285156 34.582031 0.84375 24.6875 0.84375 Z M 24.6875 -38.984375 C 21.90625 -38.984375 19.765625 -38.007812 18.265625 -36.0625 C 16.765625 -34.125 15.972656 -31.414062 15.890625 -27.9375 L 33.578125 -27.9375 C 33.359375 -31.613281 32.472656 -34.375 30.921875 -36.21875 C 29.378906 -38.0625 27.300781 -38.984375 24.6875 -38.984375 Z M 24.6875 -38.984375 "/></g></g></g><g fill="#000000" fill-opacity="1"><g transform="translate(432.050912, 198.561411)"><g><path d="M 44.453125 -13.3125 C 44.453125 -8.90625 42.644531 -5.441406 39.03125 -2.921875 C 35.425781 -0.410156 30.4375 0.84375 24.0625 0.84375 C 17.789062 0.84375 12.988281 -0.144531 9.65625 -2.125 C 6.332031 -4.101562 4.125 -7.1875 3.03125 -11.375 L 13.4375 -12.9375 C 14.03125 -10.769531 15.050781 -9.238281 16.5 -8.34375 C 17.945312 -7.445312 20.46875 -7 24.0625 -7 C 27.375 -7 29.785156 -7.414062 31.296875 -8.25 C 32.816406 -9.09375 33.578125 -10.414062 33.578125 -12.21875 C 33.578125 -13.675781 32.96875 -14.832031 31.75 -15.6875 C 30.53125 -16.550781 28.457031 -17.273438 25.53125 -17.859375 C 18.84375 -19.179688 14.332031 -20.410156 12 -21.546875 C 9.675781 -22.691406 7.898438 -24.171875 6.671875 -25.984375 C 5.453125 -27.796875 4.84375 -30.019531 4.84375 -32.65625 C 4.84375 -37.007812 6.519531 -40.398438 9.875 -42.828125 C 13.238281 -45.265625 17.992188 -46.484375 24.140625 -46.484375 C 29.566406 -46.484375 33.925781 -45.425781 37.21875 -43.3125 C 40.519531 -41.207031 42.582031 -38.160156 43.40625 -34.171875 L 32.90625 -33.078125 C 32.570312 -34.929688 31.742188 -36.3125 30.421875 -37.21875 C 29.097656 -38.132812 27.003906 -38.59375 24.140625 -38.59375 C 21.335938 -38.59375 19.234375 -38.234375 17.828125 -37.515625 C 16.421875 -36.804688 15.71875 -35.609375 15.71875 -33.921875 C 15.71875 -32.597656 16.257812 -31.550781 17.34375 -30.78125 C 18.425781 -30.007812 20.242188 -29.367188 22.796875 -28.859375 C 26.359375 -28.128906 29.523438 -27.378906 32.296875 -26.609375 C 35.066406 -25.835938 37.285156 -24.914062 38.953125 -23.84375 C 40.628906 -22.78125 41.960938 -21.410156 42.953125 -19.734375 C 43.953125 -18.066406 44.453125 -15.925781 44.453125 -13.3125 Z M 44.453125 -13.3125 "/></g></g></g><g fill="#000000" fill-opacity="1"><g transform="translate(480.030593, 198.561411)"><g><path d="M 44.453125 -13.3125 C 44.453125 -8.90625 42.644531 -5.441406 39.03125 -2.921875 C 35.425781 -0.410156 30.4375 0.84375 24.0625 0.84375 C 17.789062 0.84375 12.988281 -0.144531 9.65625 -2.125 C 6.332031 -4.101562 4.125 -7.1875 3.03125 -11.375 L 13.4375 -12.9375 C 14.03125 -10.769531 15.050781 -9.238281 16.5 -8.34375 C 17.945312 -7.445312 20.46875 -7 24.0625 -7 C 27.375 -7 29.785156 -7.414062 31.296875 -8.25 C 32.816406 -9.09375 33.578125 -10.414062 33.578125 -12.21875 C 33.578125 -13.675781 32.96875 -14.832031 31.75 -15.6875 C 30.53125 -16.550781 28.457031 -17.273438 25.53125 -17.859375 C 18.84375 -19.179688 14.332031 -20.410156 12 -21.546875 C 9.675781 -22.691406 7.898438 -24.171875 6.671875 -25.984375 C 5.453125 -27.796875 4.84375 -30.019531 4.84375 -32.65625 C 4.84375 -37.007812 6.519531 -40.398438 9.875 -42.828125 C 13.238281 -45.265625 17.992188 -46.484375 24.140625 -46.484375 C 29.566406 -46.484375 33.925781 -45.425781 37.21875 -43.3125 C 40.519531 -41.207031 42.582031 -38.160156 43.40625 -34.171875 L 32.90625 -33.078125 C 32.570312 -34.929688 31.742188 -36.3125 30.421875 -37.21875 C 29.097656 -38.132812 27.003906 -38.59375 24.140625 -38.59375 C 21.335938 -38.59375 19.234375 -38.234375 17.828125 -37.515625 C 16.421875 -36.804688 15.71875 -35.609375 15.71875 -33.921875 C 15.71875 -32.597656 16.257812 -31.550781 17.34375 -30.78125 C 18.425781 -30.007812 20.242188 -29.367188 22.796875 -28.859375 C 26.359375 -28.128906 29.523438 -27.378906 32.296875 -26.609375 C 35.066406 -25.835938 37.285156 -24.914062 38.953125 -23.84375 C 40.628906 -22.78125 41.960938 -21.410156 42.953125 -19.734375 C 43.953125 -18.066406 44.453125 -15.925781 44.453125 -13.3125 Z M 44.453125 -13.3125 "/></g></g></g><g fill="#000000" fill-opacity="1"><g transform="translate(528.010275, 198.561411)"><g><path d="M 6.03125 -53.8125 L 6.03125 -62.53125 L 17.859375 -62.53125 L 17.859375 -53.8125 Z M 6.03125 0 L 6.03125 -45.59375 L 17.859375 -45.59375 L 17.859375 0 Z M 6.03125 0 "/></g></g></g><g fill="#000000" fill-opacity="1"><g transform="translate(551.979053, 198.561411)"><g><path d="M 49.34375 -22.84375 C 49.34375 -15.445312 47.289062 -9.648438 43.1875 -5.453125 C 39.082031 -1.253906 33.410156 0.84375 26.171875 0.84375 C 19.054688 0.84375 13.476562 -1.257812 9.4375 -5.46875 C 5.394531 -9.6875 3.375 -15.476562 3.375 -22.84375 C 3.375 -30.175781 5.394531 -35.941406 9.4375 -40.140625 C 13.476562 -44.335938 19.140625 -46.4375 26.421875 -46.4375 C 33.867188 -46.4375 39.550781 -44.40625 43.46875 -40.34375 C 47.382812 -36.28125 49.34375 -30.445312 49.34375 -22.84375 Z M 36.953125 -22.84375 C 36.953125 -28.257812 36.066406 -32.1875 34.296875 -34.625 C 32.523438 -37.070312 29.957031 -38.296875 26.59375 -38.296875 C 19.394531 -38.296875 15.796875 -33.144531 15.796875 -22.84375 C 15.796875 -17.757812 16.671875 -13.890625 18.421875 -11.234375 C 20.179688 -8.578125 22.722656 -7.25 26.046875 -7.25 C 33.316406 -7.25 36.953125 -12.445312 36.953125 -22.84375 Z M 36.953125 -22.84375 "/></g></g></g><g fill="#000000" fill-opacity="1"><g transform="translate(604.676667, 198.561411)"><g><path d="M 35.5625 0 L 35.5625 -25.578125 C 35.5625 -33.585938 32.851562 -37.59375 27.4375 -37.59375 C 24.570312 -37.59375 22.257812 -36.363281 20.5 -33.90625 C 18.738281 -31.445312 17.859375 -28.289062 17.859375 -24.4375 L 17.859375 0 L 6.03125 0 L 6.03125 -35.390625 C 6.03125 -37.835938 5.992188 -39.835938 5.921875 -41.390625 C 5.847656 -42.953125 5.769531 -44.351562 5.6875 -45.59375 L 16.984375 -45.59375 C 17.066406 -45.0625 17.175781 -43.632812 17.3125 -41.3125 C 17.457031 -39 17.53125 -37.40625 17.53125 -36.53125 L 17.703125 -36.53125 C 19.296875 -40.019531 21.300781 -42.550781 23.71875 -44.125 C 26.132812 -45.695312 29.015625 -46.484375 32.359375 -46.484375 C 37.191406 -46.484375 40.898438 -44.992188 43.484375 -42.015625 C 46.066406 -39.035156 47.359375 -34.679688 47.359375 -28.953125 L 47.359375 0 Z M 35.5625 0 "/></g></g></g><g fill="#000000" fill-opacity="1"><g transform="translate(657.374281, 198.561411)"><g><path d="M 16.5625 0.84375 C 12.144531 0.84375 8.703125 -0.351562 6.234375 -2.75 C 3.765625 -5.15625 2.53125 -8.535156 2.53125 -12.890625 C 2.53125 -17.609375 4.066406 -21.203125 7.140625 -23.671875 C 10.210938 -26.148438 14.671875 -27.414062 20.515625 -27.46875 L 30.34375 -27.640625 L 30.34375 -29.953125 C 30.34375 -32.929688 29.820312 -35.144531 28.78125 -36.59375 C 27.738281 -38.039062 26.039062 -38.765625 23.6875 -38.765625 C 21.488281 -38.765625 19.875 -38.265625 18.84375 -37.265625 C 17.820312 -36.273438 17.1875 -34.625 16.9375 -32.3125 L 4.59375 -32.90625 C 5.351562 -37.34375 7.382812 -40.707031 10.6875 -43 C 13.988281 -45.289062 18.488281 -46.4375 24.1875 -46.4375 C 29.945312 -46.4375 34.382812 -45.015625 37.5 -42.171875 C 40.613281 -39.335938 42.171875 -35.304688 42.171875 -30.078125 L 42.171875 -13.484375 C 42.171875 -10.929688 42.457031 -9.164062 43.03125 -8.1875 C 43.613281 -7.21875 44.578125 -6.734375 45.921875 -6.734375 C 46.828125 -6.734375 47.703125 -6.820312 48.546875 -7 L 48.546875 -0.59375 C 47.835938 -0.425781 47.203125 -0.269531 46.640625 -0.125 C 46.078125 0.0078125 45.515625 0.117188 44.953125 0.203125 C 44.398438 0.296875 43.804688 0.367188 43.171875 0.421875 C 42.535156 0.472656 41.796875 0.5 40.953125 0.5 C 37.972656 0.5 35.773438 -0.226562 34.359375 -1.6875 C 32.941406 -3.144531 32.09375 -5.289062 31.8125 -8.125 L 31.5625 -8.125 C 28.25 -2.144531 23.25 0.84375 16.5625 0.84375 Z M 30.34375 -21.109375 L 24.265625 -21.03125 C 21.515625 -20.914062 19.5625 -20.613281 18.40625 -20.125 C 17.257812 -19.632812 16.382812 -18.878906 15.78125 -17.859375 C 15.175781 -16.847656 14.875 -15.503906 14.875 -13.828125 C 14.875 -11.660156 15.367188 -10.050781 16.359375 -9 C 17.359375 -7.945312 18.691406 -7.421875 20.359375 -7.421875 C 22.210938 -7.421875 23.898438 -7.925781 25.421875 -8.9375 C 26.953125 -9.945312 28.15625 -11.34375 29.03125 -13.125 C 29.90625 -14.90625 30.34375 -16.796875 30.34375 -18.796875 Z M 30.34375 -21.109375 "/></g></g></g><g fill="#000000" fill-opacity="1"><g transform="translate(705.353962, 198.561411)"><g><path d="M 6.03125 0 L 6.03125 -62.53125 L 17.859375 -62.53125 L 17.859375 0 Z M 6.03125 0 "/></g></g></g><g fill="#000000" fill-opacity="1"><g transform="translate(729.304917, 198.561411)"><g/></g></g></svg>